<svg width="28" height="35" viewBox="0 0 28 35" fill="none" xmlns="http://www.w3.org/2000/svg">
<path d="M13.9164 0.353516C6.24284 0.353516 0 5.9297 0 12.7837C0 21.2898 12.4538 33.7772 12.984 34.3046C13.482 34.8001 14.3516 34.7992 14.8487 34.3046C15.3789 33.7772 27.8327 21.2898 27.8327 12.7837C27.8326 5.9297 21.5898 0.353516 13.9164 0.353516ZM13.9164 19.0377C10.0556 19.0377 6.91476 16.2322 6.91476 12.7837C6.91476 9.33526 10.0557 6.52981 13.9164 6.52981C17.777 6.52981 20.9179 9.33533 20.9179 12.7838C20.9179 16.2323 17.777 19.0377 13.9164 19.0377Z" fill="#F99746"/>
</svg>
