<svg width="33" height="34" viewBox="0 0 33 34" fill="none" xmlns="http://www.w3.org/2000/svg">
<path d="M13.6811 20.2686C10.528 17.1156 9.81603 13.9625 9.65541 12.6992C9.61053 12.3499 9.73074 11.9996 9.98063 11.7515L12.5323 9.20102C12.9076 8.82591 12.9742 8.24131 12.6929 7.79138L8.6302 1.48299C8.31895 0.984769 7.67986 0.804957 7.15447 1.06778L0.632437 4.13939C0.207579 4.34859 -0.0423174 4.79999 0.00592058 5.2711C0.347657 8.51756 1.76301 16.4982 9.60586 24.3415C17.4487 32.1848 25.4282 33.5996 28.6765 33.9413C29.1476 33.9896 29.599 33.7397 29.8082 33.3148L32.8798 26.7929C33.1417 26.2686 32.963 25.6312 32.4669 25.3194L26.1584 21.2579C25.7087 20.9763 25.1242 21.0424 24.7488 21.4174L22.1983 23.969C21.9501 24.2189 21.5998 24.3391 21.2505 24.2942C19.9872 24.1336 16.8342 23.4217 13.6811 20.2686Z" fill="#F99746"/>
</svg>
