<svg width="33" height="34" viewBox="0 0 33 34" fill="none" xmlns="http://www.w3.org/2000/svg">
<path d="M16.5 0.150391C7.40154 0.150391 0 7.55193 0 16.6504C0 25.7489 7.40154 33.1504 16.5 33.1504C25.5985 33.1504 33 25.7489 33 16.6504C33 7.55193 25.5985 0.150391 16.5 0.150391ZM24.3472 25.1849C24.079 25.453 23.7271 25.588 23.3751 25.588C23.0231 25.588 22.6709 25.453 22.403 25.1849L15.5279 18.3101C15.2693 18.053 15.1251 17.7035 15.1251 17.338V8.40039C15.1251 7.64005 15.7409 7.02547 16.5 7.02547C17.2591 7.02547 17.8749 7.64005 17.8749 8.40039V16.7687L24.3472 23.2407C24.8847 23.7785 24.8847 24.6474 24.3472 25.1849Z" fill="#F99746"/>
</svg>
