<svg width="44" height="50" viewBox="0 0 44 50" fill="none" xmlns="http://www.w3.org/2000/svg">
<path d="M20.474 15.0898C20.3882 15.09 20.3034 15.0719 20.2252 15.0367C20.1469 15.0016 20.077 14.9502 20.0201 14.8861C19.9632 14.8219 19.9206 14.7464 19.8951 14.6645C19.8696 14.5826 19.8617 14.4962 19.8721 14.4111C20.167 11.9907 19.2131 9.17255 17.2553 6.67917C15.4759 4.41304 13.1087 2.75119 11.3648 2.54401C11.2855 2.53501 11.2088 2.51043 11.1391 2.47169C11.0693 2.43295 11.0079 2.38081 10.9584 2.31826C10.9089 2.25572 10.8722 2.184 10.8505 2.10724C10.8288 2.03047 10.8225 1.95017 10.8319 1.87095C10.8413 1.79173 10.8663 1.71515 10.9054 1.64561C10.9445 1.57608 10.9969 1.51495 11.0597 1.46575C11.1225 1.41656 11.1944 1.38025 11.2713 1.35894C11.3482 1.33762 11.4285 1.3317 11.5077 1.34152C13.582 1.58796 16.2119 3.39008 18.2077 5.93119C21.1584 9.68893 21.2702 12.9489 21.0742 14.5575C21.0564 14.7042 20.9855 14.8393 20.8749 14.9374C20.7644 15.0354 20.6217 15.0896 20.474 15.0898Z" fill="#BF7A47"/>
<path d="M20.4732 14.5258C21.9244 14.5168 23.9437 14.0707 25.304 14.2887C37.1099 16.1839 40.5309 23.1389 40.5309 31.6702C40.5309 41.4689 33.8867 49.4149 20.5146 49.4482H20.4308C7.05873 49.4149 0.414551 41.4689 0.414551 31.6702C0.414551 23.1389 3.83554 16.1839 15.6415 14.2887C17.0028 14.0707 19.0221 14.5178 20.4732 14.5258Z" fill="#F29737"/>
<g opacity="0.5">
<path opacity="0.5" d="M28.8743 46.232H28.7905C15.4184 46.1987 8.77425 38.2527 8.77425 28.4539C8.77425 22.6941 10.3345 17.6532 14.9804 14.4023C3.70817 16.4486 0.414551 23.3004 0.414551 31.6701C0.414551 41.4688 7.05872 49.4148 20.4308 49.4481H20.5146C25.9699 49.4345 30.305 48.1036 33.5265 45.8676C31.9878 46.1116 30.4322 46.2334 28.8743 46.232Z" fill="#926C17"/>
</g>
<g opacity="0.5">
<path opacity="0.5" d="M30.8735 43.2436L30.7994 43.2827C18.9622 49.5026 9.37441 45.5826 4.79513 36.9198C1.41289 30.5218 0.738384 23.9756 6.44266 17.7461C1.93492 21.0007 0.414551 25.9849 0.414551 31.6703C0.414551 41.4691 7.05874 49.4151 20.4309 49.4484H20.5146C32.467 49.4181 39.0434 43.067 40.3053 34.7213C38.4443 37.9229 35.3543 40.8606 30.8735 43.2436Z" fill="#CE7A2E"/>
</g>
<path d="M28.1658 0.133498C34.8524 -0.979589 43.6703 5.23372 43.6703 5.23372C43.6703 5.23372 30.7997 1.51704 19.1875 8.19556C19.1875 8.19556 20.5771 1.39695 28.1658 0.133498Z" fill="#76B035"/>
<path d="M29.397 8.29452C34.3771 9.61549 38.3238 17.2325 38.3854 17.3516C38.2774 17.2517 30.6725 10.2452 20.3955 11.6116C20.3955 11.6116 23.7014 6.78283 29.397 8.29452Z" fill="#76B035"/>
<path d="M32.3719 1.40204C33.7723 1.16903 35.266 1.25804 36.7528 1.54332C34.0393 0.46082 30.9218 -0.325296 28.1658 0.133456C20.5771 1.39689 19.1875 8.19543 19.1875 8.19543C21.1082 7.09466 23.1493 6.21881 25.2704 5.58521C26.5966 3.82205 28.7957 1.99753 32.3719 1.40204Z" fill="#4E6B28"/>
<path d="M32.3743 9.84688C32.3826 9.8491 32.3909 9.85183 32.3993 9.85405C31.463 9.13887 30.4535 8.57476 29.397 8.29452C23.7014 6.78282 20.3955 11.6116 20.3955 11.6116C21.905 11.4115 23.4322 11.3815 24.9484 11.5219C26.4535 10.2869 28.9927 8.94935 32.3743 9.84688Z" fill="#4E6B28"/>
<path d="M35.1138 14.9829C37.157 16.2192 38.3436 17.3125 38.3858 17.3516C38.3727 17.3262 38.183 16.9602 37.8451 16.3882C36.9627 15.8671 36.0507 15.3979 35.1138 14.9829Z" fill="#4E6B28"/>
<g opacity="0.6">
<path opacity="0.6" d="M4.71943 38.4808C4.59307 38.4808 4.46989 38.4412 4.36714 38.3677C4.26439 38.2941 4.18723 38.1903 4.14646 38.0707C3.9522 37.5012 3.78398 36.9145 3.64664 36.3268C3.29449 34.7997 3.11917 33.2371 3.12413 31.6699C3.12413 30.8203 3.15813 29.9948 3.22504 29.2152C3.23881 29.0552 3.31557 28.9072 3.43844 28.8038C3.5613 28.7004 3.72021 28.6501 3.8802 28.6639C4.04019 28.6776 4.18816 28.7544 4.29156 28.8773C4.39495 29.0001 4.4453 29.159 4.43153 29.319C4.36735 30.064 4.33486 30.8549 4.33486 31.6703C4.32992 33.1446 4.49454 34.6145 4.82549 36.0511C4.95385 36.6005 5.11086 37.1483 5.2924 37.68C5.32353 37.7712 5.33246 37.8685 5.31845 37.9638C5.30444 38.0591 5.26789 38.1497 5.21184 38.228C5.15579 38.3064 5.08185 38.3702 4.99618 38.4142C4.9105 38.4583 4.81556 38.4812 4.71923 38.4812L4.71943 38.4808Z" fill="#E9E9E9"/>
</g>
<g opacity="0.6">
<path opacity="0.6" d="M6.79987 42.582C6.70276 42.5821 6.60704 42.5589 6.5208 42.5142C6.43456 42.4695 6.36033 42.4048 6.30438 42.3254C5.90686 41.7612 5.54557 41.1722 5.22266 40.5622C5.14887 40.4204 5.13416 40.2552 5.18172 40.1026C5.22929 39.95 5.33528 39.8223 5.47657 39.7476C5.61786 39.6728 5.78298 39.6569 5.93593 39.7034C6.08887 39.7499 6.21722 39.855 6.29297 39.9958C6.59182 40.5603 6.92622 41.1053 7.29416 41.6275C7.35811 41.7181 7.39593 41.8246 7.4035 41.9353C7.41106 42.0459 7.38808 42.1566 7.33705 42.255C7.28603 42.3535 7.20892 42.4361 7.11416 42.4938C7.01939 42.5515 6.9106 42.582 6.79967 42.582H6.79987Z" fill="#E9E9E9"/>
</g>
</svg>
