<svg width="48" height="49" viewBox="0 0 48 49" fill="none" xmlns="http://www.w3.org/2000/svg">
<path d="M40.564 25.2065L40.5338 25.2368C39.4136 26.6294 38.4447 27.9615 37.5869 29.223L37.597 29.2331C38.697 29.8991 40.12 29.9395 41.2806 29.1927C42.1686 28.6276 42.7136 27.7294 42.8549 26.7707L42.865 26.7405C41.9567 26.5083 41.1494 25.9432 40.564 25.2065Z" fill="#3B601C"/>
<path d="M31.0074 23.0469L28.6461 28.1229C26.8095 29.021 24.4279 27.9715 23.6206 26.7807L23.2573 24.7321C23.7922 24.8129 24.3371 24.8532 24.8921 24.8532C27.1021 24.8633 29.191 24.2074 31.0074 23.0469Z" fill="#4E7A25"/>
<path d="M16.3347 20.8369C17.1219 21.6947 17.9797 22.4415 18.898 23.0469C18.4439 26.0744 14.5889 27.6083 12.2274 25.6102C11.6926 24.5707 11.3293 23.8543 11.3091 23.8139C12.5705 23.7836 13.832 23.3497 14.9017 22.4919C15.4971 22.0075 15.9815 21.4525 16.3347 20.8369Z" fill="#3B601C"/>
<path d="M6.37446 23.7835L9.68445 30.1512L9.64408 30.1714C7.46433 31.1805 4.88093 30.2218 3.87179 28.0421C3.24612 26.6798 3.3874 25.156 4.10389 23.9652L4.17453 23.6826C4.30572 23.7129 4.447 23.7432 4.58828 23.7734C5.19376 23.8744 5.79925 23.8744 6.37446 23.7835Z" fill="#3B601C"/>
<path d="M4.88081 27.033C4.39642 25.9734 4.36614 24.8129 4.71934 23.7936C4.66889 23.7835 4.62852 23.7835 4.57806 23.7734C4.43678 23.7533 4.30559 23.723 4.16431 23.6826L4.09367 23.9652C3.36709 25.156 3.2359 26.6798 3.86157 28.0421C4.86062 30.2218 7.44403 31.1805 9.63387 30.1714L9.68433 30.1512L9.3614 29.5356C7.53485 29.7576 5.69821 28.799 4.88081 27.033Z" fill="#4D841E"/>
<path d="M17.3941 21.876C16.7381 24.2677 13.8923 25.5493 11.6924 24.5401C11.8438 24.8328 12.0254 25.186 12.2373 25.5997C14.5886 27.5978 18.4436 26.074 18.9078 23.0365C18.383 22.7035 17.8784 22.3099 17.3941 21.876Z" fill="#315112"/>
<path d="M23.2573 24.7725L23.6105 26.7806C24.4078 27.9714 26.7995 29.0209 28.6361 28.1227L29.5343 26.1852C27.2536 26.9522 24.4582 25.9834 23.2573 24.7725Z" fill="#2C4415"/>
<path d="M41.2806 27.7798C40.3622 28.3651 39.2824 28.466 38.3236 28.1532C38.0713 28.5165 37.819 28.8697 37.5869 29.2229L37.597 29.2329C38.697 29.899 40.12 29.9393 41.2806 29.1926C42.1686 28.6275 42.7136 27.7293 42.8549 26.7707L42.865 26.7404C42.7136 26.7 42.5622 26.6496 42.4209 26.5991C42.1485 27.0633 41.765 27.4771 41.2806 27.7798Z" fill="#4D841E"/>
<path d="M31.6129 21.634L25.1444 35.439L23.2573 24.7321C21.7032 24.4899 20.2198 23.9147 18.9079 23.0367L19.7253 32.8758C19.7354 35.1262 17.6061 35.7519 16.5465 33.8547L10.5422 22.2799L6.32397 23.6927L17.7373 45.6919C18.3832 47.3368 19.9675 48.4266 21.7537 48.4266H26.4058C28.2929 48.4266 29.9075 47.1753 30.5231 45.3891C32.1882 40.5856 33.5505 35.7014 37.7889 29.4145L41.452 24.1064L31.6129 21.634Z" fill="#CADD78"/>
<path d="M28.0709 47.6695H23.4188C21.6427 47.6695 20.0482 46.5797 19.4024 44.9348L8.13018 23.1777L6.37427 23.7731L17.7373 45.6916C18.3831 47.3365 19.9675 48.4264 21.7537 48.4264H26.4058C27.3242 48.4264 28.2223 48.1236 28.959 47.5686C28.6663 47.6393 28.3737 47.6695 28.0709 47.6695Z" fill="#ADBC55"/>
<path d="M20.7241 24.0157C20.0884 23.7432 19.4829 23.4203 18.9077 23.0469L19.7251 32.886C19.7352 33.33 19.6343 33.7741 19.4325 34.1676C20.4012 34.4401 21.4002 33.6631 21.4002 32.1191L20.7241 24.0157Z" fill="#ADBC55"/>
<path d="M31.8147 21.0386L25.1543 35.4592L25.447 37.1041C25.5681 38.0527 25.9616 38.2344 26.4057 38.0931C26.779 37.9821 27.0616 37.6793 27.2029 37.3161L34.3275 21.0487L31.8147 21.0386Z" fill="#ADBC55"/>
<path d="M7.07082 14.126C5.12313 16.225 4.91121 19.4442 6.71761 21.6946C7.18183 22.2698 7.72678 22.7239 8.33228 23.067C7.24238 23.7128 5.93046 23.9954 4.58827 23.7633C1.59105 23.2587 -0.427275 20.4129 0.0773069 17.4158C0.581889 14.4187 3.42773 12.4004 6.42495 12.9049L6.56624 12.8646C6.68734 13.3086 6.8488 13.7223 7.07082 14.126Z" fill="#3B601C"/>
<path d="M40.0092 23.9752C38.6973 24.5101 37.2543 24.5807 35.9121 24.2073C34.8121 23.9046 33.7828 23.289 32.9553 22.3909C32.8039 22.2294 32.6728 22.068 32.5416 21.8964L32.5214 21.9065C30.3921 23.7633 27.7482 24.8633 24.8923 24.8633C21.5218 24.8633 18.6255 23.3395 16.3449 20.8368C15.9816 21.4524 15.5073 22.0074 14.922 22.4817C12.9743 24.0459 10.3506 24.2073 8.34237 23.067C7.73689 22.7239 7.19195 22.2698 6.72774 21.6946C4.93147 19.4543 5.1333 16.2351 7.08094 14.126C6.85893 13.7224 6.69747 13.3086 6.57637 12.8747C5.38559 8.4143 9.78544 2.85395 15.6687 6.05292C18.9888 -2.8376 31.2701 -0.920234 34.0149 5.28597C38.2432 3.20714 42.7743 7.4859 41.1899 10.8261H41.3413C44.8531 10.8261 47.6989 13.6719 47.6989 17.1736C47.6989 18.324 47.386 19.4139 46.8512 20.3423C47.5172 21.0487 47.931 22.0175 47.931 23.067C47.931 25.2669 46.1448 27.0531 43.9449 27.0531C42.1284 27.0531 40.4936 25.6201 40.0092 23.9752Z" fill="#4D841E"/>
<path d="M43.9347 23.0168C42.1283 23.0168 40.4935 21.5838 39.999 19.9288C38.6871 20.4637 37.244 20.5343 35.9019 20.1609C34.8019 19.8582 33.7726 19.2527 32.9451 18.3445C32.7937 18.183 32.6625 18.0215 32.5313 17.85L32.5112 17.8601C30.3819 19.7169 27.7379 20.8169 24.882 20.8169C21.5115 20.8169 18.6152 19.2931 16.3346 16.7904C15.9713 17.406 15.497 17.961 14.9117 18.4353C12.964 19.9994 10.3403 20.1609 8.33206 19.0206C7.72658 18.6775 7.17155 18.2234 6.71743 17.6482C6.33396 17.1739 6.0514 16.6592 5.83948 16.1143C5.16335 17.961 5.41564 20.0701 6.71743 21.6847C7.18164 22.2599 7.72658 22.714 8.33206 23.0571C10.3403 24.1874 12.964 24.036 14.9117 22.4718C15.497 21.9975 15.9814 21.4425 16.3346 20.8269C18.6152 23.3195 21.5115 24.8534 24.882 24.8534C27.7379 24.8534 30.3819 23.7535 32.5112 21.8966L32.5313 21.8865C32.6625 22.0581 32.7937 22.2196 32.9451 22.381C33.7726 23.2792 34.8019 23.8846 35.9019 24.1975C37.244 24.5709 38.6871 24.5002 39.999 23.9654C40.4834 25.6204 42.1182 27.0533 43.9347 27.0533C46.1346 27.0533 47.9208 25.2672 47.9208 23.0672C47.9208 22.3306 47.7189 21.6444 47.3758 21.049C46.6795 22.2297 45.408 23.0168 43.9347 23.0168Z" fill="#67A829"/>
<path d="M6.78825 21.7754C6.7277 21.7653 6.66715 21.7552 6.6066 21.7451C3.60938 21.2405 1.59105 18.3948 2.09564 15.3976C2.20664 14.7316 2.43875 14.116 2.75159 13.571C1.37913 14.3582 0.359873 15.7407 0.0773069 17.4159C-0.427275 20.413 1.59105 23.2588 4.58827 23.7634C5.93046 23.9854 7.24238 23.713 8.33228 23.0671C7.75705 22.7442 7.23229 22.3102 6.78825 21.7754Z" fill="#4D841E"/>
</svg>
