<svg width="45" height="50" viewBox="0 0 45 50" fill="none" xmlns="http://www.w3.org/2000/svg">
<path d="M12.0723 12.3313C10.7008 11.6501 9.34555 9.92041 8.92676 9.33107C9.66848 9.3896 11.0934 10.0768 11.8886 10.0768C14.5911 10.0768 16.573 7.28453 21.4048 9.01118L19.664 1.54151C19.5906 1.21709 19.6482 0.876818 19.8242 0.594588C20.0002 0.312358 20.2805 0.110964 20.6041 0.0341454C20.9277 -0.0426736 21.2686 0.0112859 21.5526 0.184305C21.8367 0.357324 22.0411 0.63543 22.1213 0.958224L23.7531 7.52471L23.7561 7.5237C27.054 6.42777 29.4325 8.661 31.8 9.33107C34.4389 10.0768 36.9809 9.03539 37.0394 9.01218C36.997 9.07172 35.3976 11.2858 33.3167 12.2949C33.1482 12.3767 32.9807 12.4517 32.8142 12.52C31.2735 13.151 29.5928 13.3617 27.944 13.1305C29.2441 13.8794 30.2711 15.0237 30.8757 16.3967C31.4803 17.7698 31.6309 19.3001 31.3055 20.7646C30.7091 20.2308 29.7797 18.9865 28.937 18.6101C27.8926 18.1449 25.2083 17.8321 23.2969 14.9308C22.6107 14.953 22.3282 18.3589 19.3421 19.0178C18.5752 19.1874 16.0291 19.041 15.5185 19.48C15.8485 16.052 18.8143 15.2608 17.7598 12.6158C17.2007 12.8096 14.6718 13.6179 12.0743 12.3323C12.0733 12.3323 12.0733 12.3313 12.0723 12.3313Z" fill="#97C447"/>
<path d="M30.1645 15.1497C29.8847 15.1314 29.6528 15.1036 29.4797 15.0791C29.8948 15.3211 30.2845 15.604 30.6431 15.9237C30.5006 15.6556 30.3407 15.397 30.1645 15.1497Z" fill="#7C993C"/>
<path d="M13.4245 12.0255C16.127 12.0255 18.109 9.23323 22.9408 10.9599L21.2 3.49014C21.1589 3.31051 21.1577 3.12406 21.1965 2.94391C21.2353 2.76377 21.3131 2.59432 21.4244 2.44751C21.5358 2.3007 21.678 2.1801 21.841 2.09421C22.0041 2.00832 22.1839 1.95923 22.368 1.9504L22.1214 0.958219C22.0411 0.635427 21.8368 0.357322 21.5527 0.184304C21.2686 0.0112859 20.9278 -0.0426733 20.6042 0.0341452C20.2805 0.110964 20.0003 0.312357 19.8243 0.594585C19.6483 0.876813 19.5907 1.21708 19.6641 1.5415L21.4049 9.01112C16.5731 7.28449 14.5911 10.0768 11.8886 10.0768C11.0934 10.0768 9.66848 9.38955 8.92676 9.33102C9.4402 10.0434 10.0204 10.7052 10.6596 11.3074C11.4352 11.4476 12.6945 12.0255 13.4245 12.0255Z" fill="#7C993C"/>
<path d="M32.8352 12.5712C39.4985 15.9387 44.0033 22.375 44.0033 29.762C44.0033 40.6335 34.2459 49.4463 22.2089 49.4463C10.1719 49.4463 0.414551 40.6335 0.414551 29.762C0.414551 22.1944 5.14136 15.6259 12.0721 12.3311C12.0731 12.3311 12.0731 12.3321 12.0741 12.3321C14.6717 13.6177 17.2006 12.8094 17.7596 12.6156C18.8142 15.2606 15.8483 16.0518 15.5183 19.4798C16.029 19.0408 18.575 19.1872 19.342 19.0176C22.328 18.3587 22.6106 14.9528 23.2968 14.9306C25.2081 17.8319 27.8924 18.1447 28.9369 18.6099C29.7795 18.9863 30.7089 20.2306 31.3053 20.7645C31.6307 19.2999 31.4801 17.7696 30.8755 16.3966C30.2709 15.0235 29.2439 13.8792 27.9439 13.1303C29.5926 13.3615 31.2733 13.1508 32.814 12.5198L32.8352 12.5712Z" fill="#F56565"/>
<path d="M30.4738 42.1932C18.4368 42.1932 8.6794 33.3804 8.6794 22.509C8.68528 18.9553 9.73276 15.4812 11.6923 12.5166C4.9695 15.8683 0.414551 22.3337 0.414551 29.7622C0.414551 40.6336 10.1719 49.4464 22.2089 49.4464C30.2075 49.4464 37.198 45.5544 40.989 39.7534C37.7202 41.3701 34.1205 42.2053 30.4738 42.1932Z" fill="#F05858"/>
<g opacity="0.8">
<path opacity="0.8" d="M10.5557 42.7316C10.4705 42.7317 10.3861 42.7138 10.3083 42.679C10.2304 42.6442 10.1608 42.5934 10.104 42.5297C9.32003 41.6535 8.61275 40.7115 7.99 39.7142C7.90509 39.5779 7.87781 39.4135 7.91415 39.257C7.9505 39.1006 8.04749 38.965 8.1838 38.8801C8.32011 38.7952 8.48457 38.7679 8.64099 38.8043C8.79741 38.8406 8.93299 38.9376 9.0179 39.0739C9.60383 40.0121 10.2693 40.8982 11.007 41.7224C11.0849 41.8095 11.136 41.9174 11.154 42.0328C11.172 42.1483 11.1562 42.2666 11.1084 42.3733C11.0607 42.48 10.9831 42.5706 10.8851 42.6342C10.787 42.6977 10.6726 42.7316 10.5557 42.7316Z" fill="#E9E9E9"/>
</g>
<g opacity="0.8">
<path opacity="0.8" d="M6.70024 36.2209C6.57419 36.2209 6.4513 36.1815 6.34869 36.1083C6.24609 36.0351 6.16889 35.9317 6.12786 35.8125C4.76044 31.8427 4.77805 27.5268 6.17781 23.5683C6.23134 23.4169 6.34283 23.2929 6.48776 23.2237C6.63268 23.1545 6.79918 23.1456 6.95061 23.1992C7.10204 23.2527 7.226 23.3642 7.29523 23.5091C7.36446 23.654 7.37328 23.8205 7.31975 23.972C6.01097 27.6725 5.99443 31.7073 7.27282 35.4184C7.30416 35.5097 7.31327 35.607 7.2994 35.7025C7.28553 35.7979 7.24908 35.8887 7.19308 35.9672C7.13708 36.0457 7.06315 36.1097 6.97743 36.1539C6.89172 36.1981 6.79668 36.2212 6.70024 36.2213V36.2209Z" fill="#E9E9E9"/>
</g>
</svg>
