<svg width="39" height="39" viewBox="0 0 39 39" fill="none" xmlns="http://www.w3.org/2000/svg">
<path d="M20 12C16.6916 12 14 14.6916 14 18C14 22.1058 19.3694 28.1333 19.598 28.3879C19.8127 28.6271 20.1876 28.6267 20.402 28.3879C20.6306 28.1333 26 22.1058 26 18C25.9999 14.6916 23.3084 12 20 12ZM20 21.0187C18.3355 21.0187 16.9813 19.6645 16.9813 18C16.9813 16.3354 18.3355 14.9812 20 14.9812C21.6645 14.9812 23.0187 16.3355 23.0187 18C23.0187 19.6645 21.6645 21.0187 20 21.0187Z" fill="#F99746"/>
<circle cx="19.5" cy="19.5" r="18.5" stroke="#EDF5E3" stroke-width="2"/>
</svg>
