<svg width="34" height="25" viewBox="0 0 34 25" fill="none" xmlns="http://www.w3.org/2000/svg">
<path d="M30.2343 0.947266H2.91367C2.46521 0.947266 2.04536 1.04859 1.66553 1.21559L16.5093 14.8566L19.8362 11.9183C19.8362 11.9183 19.8365 11.918 19.8365 11.9179C19.8366 11.9178 19.8369 11.9177 19.8369 11.9177L31.4829 1.21583C31.103 1.04871 30.6829 0.947266 30.2343 0.947266Z" fill="#F99746"/>
<path d="M32.856 2.47803L21.8965 12.549L32.8556 22.6202C33.0374 22.2712 33.1476 21.8854 33.1476 21.4732V3.62462C33.1476 3.21274 33.0376 2.82697 32.856 2.47803Z" fill="#F99746"/>
<path d="M0.291981 2.47754C0.110254 2.8266 0 3.21243 0 3.62455V21.4732C0 21.885 0.110124 22.2709 0.291722 22.6199L11.2513 12.5489L0.291981 2.47754Z" fill="#F99746"/>
<path d="M20.523 13.8112L17.1956 16.7498C17.0059 16.9241 16.7574 17.0113 16.509 17.0113C16.2606 17.0113 16.0121 16.9241 15.8225 16.7498L12.6245 13.811L1.66479 23.8821C2.04469 24.0492 2.4648 24.1507 2.91339 24.1507H30.234C30.6825 24.1507 31.1023 24.0494 31.4822 23.8823L20.523 13.8112Z" fill="#F99746"/>
</svg>
