<svg width="39" height="39" viewBox="0 0 39 39" fill="none" xmlns="http://www.w3.org/2000/svg">
<path d="M18.2187 20.7824C16.7854 19.3492 16.4618 17.916 16.3888 17.3418C16.3684 17.183 16.4231 17.0238 16.5367 16.911L17.6965 15.7517C17.8671 15.5812 17.8974 15.3155 17.7695 15.111L15.9228 12.2435C15.7813 12.017 15.4908 11.9353 15.252 12.0548L12.2875 13.451C12.0944 13.5461 11.9808 13.7512 12.0027 13.9654C12.158 15.441 12.8014 19.0686 16.3663 22.6337C19.9312 26.1989 23.5583 26.842 25.0348 26.9973C25.2489 27.0192 25.4541 26.9056 25.5492 26.7125L26.9454 23.748C27.0644 23.5097 26.9832 23.22 26.7577 23.0783L23.8902 21.2321C23.6858 21.1041 23.4201 21.1342 23.2494 21.3046L22.0901 22.4644C21.9773 22.578 21.8181 22.6327 21.6593 22.6123C21.0851 22.5392 19.6519 22.2156 18.2187 20.7824Z" fill="#F99746"/>
<circle cx="19.5" cy="19.5" r="18.5" stroke="#EDF5E3" stroke-width="2"/>
</svg>
