<svg width="39" height="39" viewBox="0 0 39 39" fill="none" xmlns="http://www.w3.org/2000/svg">
<circle cx="19.5" cy="19.5" r="18.5" stroke="#EDF5E3" stroke-width="2"/>
<path d="M19.5 11C14.8129 11 11 14.8129 11 19.5C11 24.1871 14.8129 28 19.5 28C24.1871 28 28 24.1871 28 19.5C28 14.8129 24.1871 11 19.5 11ZM23.5425 23.8966C23.4044 24.0347 23.223 24.1042 23.0417 24.1042C22.8604 24.1042 22.6789 24.0347 22.5409 23.8966L18.9992 20.355C18.866 20.2226 18.7917 20.0425 18.7917 19.8542V15.25C18.7917 14.8583 19.109 14.5417 19.5 14.5417C19.891 14.5417 20.2083 14.8583 20.2083 15.25V19.561L23.5425 22.895C23.8194 23.1721 23.8194 23.6197 23.5425 23.8966Z" fill="#F99746"/>
</svg>
